# xmcd CD database file
#
# Track frame offsets:
#	150
#	11825
#	23616
#	36303
#	48684
#	61779
#	73231
#	83453
#	94473
#	109167
#	120903
#	131539
#	143162
#	154986
#	164475
#	174698
#	184998
#	195639
#	205479
#	215820
#
# Disc length: 3034 seconds
#
# Revision: 0
# Processed by: cddbd v1.5.1PL0 Copyright (c) Steve Scherf et al.
# Submitted via: CDex 1.51
#
DISCID=2b0bd814
DTITLE=Patsy Cline - I Can't Forget You
DYEAR=1900
DGENRE=Country
TTITLE0=Walking After Midnight
TTITLE1=Honky tonk merry go round
TTITLE2=Just a closed walk with thee
TTITLE3=A poor man's roses
TTITLE4=Life's railway to heaven
TTITLE5=Crazy dreams
TTITLE6=Three Cigarettes In An Ashtray
TTITLE7=I Can't Forget You
TTITLE8=A Church, A Courtroom, Then Goodbye
TTITLE9=I've Loved And Lost Again
TTITLE10=Lovesick blues
TTITLE11=Lonely street
TTITLE12=Today, tomorrow and forever
TTITLE13=I'm moving on
TTITLE14=Too many secrets
TTITLE15=Pick me up on your way down
TTITLE16=Gotta lot rythm in my soul
TTITLE17=I'm blue again
TTITLE18=Walkin' dreams
TTITLE19=Never no more
EXTD=
EXTT0=
EXTT1=
EXTT2=
EXTT3=
EXTT4=
EXTT5=
EXTT6=
EXTT7=
EXTT8=
EXTT9=
EXTT10=
EXTT11=
EXTT12=
EXTT13=
EXTT14=
EXTT15=
EXTT16=
EXTT17=
EXTT18=
EXTT19=
PLAYORDER=
